<svg xmlns="http://www.w3.org/2000/svg" width="20" height="20" viewBox="0 0 20 20" fill="none">
  <g clip-path="url(#clip0_280_1473)">
    <path d="M14.9993 1.6665L15.5142 2.69616C15.7354 3.13864 15.846 3.35988 15.9938 3.5516C16.125 3.72172 16.2775 3.87423 16.4476 4.00537C16.6393 4.15315 16.8605 4.26377 17.303 4.48501L18.3327 4.99984L17.303 5.51466C16.8605 5.7359 16.6393 5.84653 16.4476 5.99431C16.2775 6.12544 16.125 6.27795 15.9938 6.44808C15.846 6.6398 15.7354 6.86104 15.5142 7.30352L14.9993 8.33317L14.4845 7.30352C14.2633 6.86104 14.1527 6.63979 14.0049 6.44808C13.8737 6.27795 13.7212 6.12544 13.5511 5.99431C13.3594 5.84653 13.1382 5.7359 12.6957 5.51466L11.666 4.99984L12.6957 4.48501C13.1382 4.26377 13.3594 4.15315 13.5511 4.00537C13.7212 3.87423 13.8737 3.72172 14.0049 3.5516C14.1527 3.35988 14.2633 3.13864 14.4845 2.69616L14.9993 1.6665Z" stroke="#667085" stroke-width="1.66667" stroke-linecap="round" stroke-linejoin="round"/>
    <path d="M17.4993 11.1576C16.4068 13.074 14.3448 14.3661 11.981 14.3661C8.47525 14.3661 5.63331 11.5242 5.63331 8.01845C5.63331 5.65445 6.92559 3.59229 8.84226 2.49984C4.81584 2.8816 1.66602 6.27227 1.66602 10.3986C1.66602 14.7808 5.21845 18.3332 9.6006 18.3332C13.7267 18.3332 17.1173 15.1837 17.4993 11.1576Z" stroke="#667085" stroke-width="1.66667" stroke-linecap="round" stroke-linejoin="round"/>
  </g>
  <defs>
    <clipPath id="clip0_280_1473">
      <rect width="20" height="20" fill="white"/>
    </clipPath>
  </defs>
</svg>
